<svg width="405" height="636" viewBox="0 0 405 636" fill="none" xmlns="http://www.w3.org/2000/svg">
<rect width="405" height="635" rx="4" fill="#001C4D"/>
<path d="M167.32 557.052C168.588 553.75 169.3 550.14 169.3 546.375C169.3 530.02 155.997 516.75 139.6 516.75C133.505 516.75 127.813 518.602 123.11 521.749C114.541 506.937 98.5459 497 80.2 497C52.8512 497 30.7 519.095 30.7 546.375C30.7 547.208 30.7309 548.041 30.7619 548.875C13.4369 554.954 1 571.433 1 590.812C1 615.346 20.9547 635.25 45.55 635.25H159.4C181.273 635.25 199 617.568 199 595.75C199 576.648 185.387 560.694 167.32 557.052Z" fill="#0026AD"/>
<path d="M385.76 395.316C386.49 393.429 386.9 391.366 386.9 389.214C386.9 379.868 379.241 372.286 369.8 372.286C366.291 372.286 363.013 373.344 360.306 375.142C355.372 366.678 346.163 361 335.6 361C319.854 361 307.1 373.626 307.1 389.214C307.1 389.69 307.118 390.167 307.136 390.643C297.161 394.117 290 403.533 290 414.607C290 428.626 301.489 440 315.65 440H381.2C393.793 440 404 429.896 404 417.429C404 406.513 396.162 397.396 385.76 395.316Z" fill="#0026AD"/>
<path d="M114.24 38.6594C115.111 36.5337 115.6 34.2094 115.6 31.7857C115.6 21.2567 106.462 12.7143 95.2 12.7143C91.0137 12.7143 87.1037 13.9062 83.8737 15.9326C77.9875 6.39687 67.0012 0 54.4 0C35.615 0 20.4 14.2241 20.4 31.7857C20.4 32.3221 20.4212 32.8585 20.4425 33.3949C8.5425 37.3085 0 47.917 0 60.3929C0 76.1864 13.7062 89 30.6 89H108.8C123.824 89 136 77.6167 136 63.5714C136 51.2743 126.65 41.0036 114.24 38.6594Z" fill="#0026AD"/>
</svg>
